<svg xmlns="http://www.w3.org/2000/svg" xmlns:xlink="http://www.w3.org/1999/xlink" version="1.1" width="128" height="128" viewBox="0 0 100 100">
  <defs>
    <g id="background">
      <path fill="#2BB673" stroke="none" d=" M 96.1 30.55 Q 92.3 21.55 85.35 14.6 78.45 7.7 69.5 3.9 60.2 0 50.05 0 39.85 0 30.55 3.9 21.55 7.7 14.65 14.6 7.75 21.55 3.95 30.55 0 39.8 0 50 0 60.15 3.95 69.45 7.75 78.4 14.65 85.35 21.55 92.25 30.55 96.05 39.85 100 50.05 100 60.2 100 69.5 96.05 78.45 92.25 85.35 85.35 92.3 78.4 96.1 69.45 100 60.15 100 50 100 39.8 96.1 30.55 Z" />
    </g>
    <g id="gloss-right">
      <path fill="#FFFFFF" fill-opacity="0.30196078431372547" stroke="none" d=" M 96.1 30.55 Q 92.3 21.55 85.35 14.65 78.5 7.75 69.5 3.9 60.2 0 50.05 0 L 50.05 100 Q 60.2 100 69.5 96.05 78.5 92.25 85.35 85.35 92.3 78.45 96.1 69.45 100 60.15 100 50 100 39.8 96.1 30.55 Z" />
    </g>
    <g transform="scale(3.3222590941082637) translate(0.10000000149011612 0.09999942779541016)" id="picture">
      <path d="M29.5 0H18c-.1 0-.3.1-.4.1L.1 17.6c-.2.2-.2.5 0 .7l11.5 11.5c.1.1.2.1.4.1.1 0 .3-.1.4-.2l17.5-18c.1-.1.1-.2.1-.3V.4c0-.2-.2-.4-.5-.4zM23 10c-1.7 0-3-1.3-3-3s1.3-3 3-3 3 1.3 3 3-1.3 3-3 3z" />
    </g>

    <linearGradient id="picture-gradient" x1="0" y1="0" y2="1" x2="0">
      <stop stop-color="#ffffff" offset="0%" />
      <stop stop-color="#e5eff9" offset="100%" />
    </linearGradient>

  </defs>
  <use xlink:href="#background" fill="#2BB673" />
  <g mask="url(#mask)">
    <g transform="translate(50 50)
                  translate(0 0)  scale(0.5)  
                  translate(-50 -50)">
      <use xlink:href="#picture" fill="url(#picture-gradient)" />
    </g>
  </g>
  <use xlink:href="#gloss-right" opacity="1" />
</svg>